{
  "source": "C:\\Users\\Peter\\Desktop\\stuff\\MIUN\\quantitative_research\\video_compression\\videos\\BVI-HD\\BVI-HD_CDVL_videos\\ORIG\\BridgeRiver_1920x1080_30fps.mp4",
  "output": "C:\\Users\\Peter\\Desktop\\stuff\\MIUN\\quantitative_research\\video_compression\\compressed_videos\\BVI-HD\\vp9\\2\\BridgeRiver_1920x1080_30fps_vp9.webm",
  "codec": "vp9",
  "ok": "Input #0, mov,mp4,m4a,3gp,3g2,mj2, from 'C:\\Users\\Peter\\Desktop\\stuff\\MIUN\\quantitative_research\\video_compression\\videos\\BVI-HD\\BVI-HD_CDVL_videos\\ORIG\\BridgeRiver_1920x1080_30fps.mp4':\n  Metadata:\n    major_brand     : isom\n    minor_version   : 512\n    compatible_brands: isomiso2avc1mp41\n    encoder         : Lavf54.28.101\n  Duration: 00:00:05.00, start: 0.000000, bitrate: 274913 kb/s\n  Stream #0:0[0x1](und): Video: h264 (High 4:4:4 Predictive) (avc1 / 0x31637661), yuv420p(progressive), 1920x1080, 274910 kb/s, 30 fps, 30 tbr, 30 tbn (default)\n    Metadata:\n      handler_name    : VideoHandler\n      vendor_id       : [0][0][0][0]\n[out#0/webm @ 00000267cfa59240] Codec AVOption b:a (set bitrate (in bits/s)) has not been used for any stream. The most likely reason is either wrong type (e.g. a video option with no video streams) or that it is a private option of some decoder which was not actually used for any stream.\nStream mapping:\n  Stream #0:0 -> #0:0 (h264 (native) -> vp9 (libvpx-vp9))\nPress [q] to stop, [?] for help\n[libvpx-vp9 @ 00000267d05a04c0] v1.15.2-100-g40561f514\nOutput #0, webm, to 'C:\\Users\\Peter\\Desktop\\stuff\\MIUN\\quantitative_research\\video_compression\\compressed_videos\\BVI-HD\\vp9\\2\\BridgeRiver_1920x1080_30fps_vp9.webm':\n  Metadata:\n    major_brand     : isom\n    minor_version   : 512\n    compatible_brands: isomiso2avc1mp41\n    encoder         : Lavf62.3.100\n  Stream #0:0(und): Video: vp9, yuv420p(tv, progressive), 1920x1080, q=2-31, 2000 kb/s, 30 fps, 1k tbn (default)\n    Metadata:\n      encoder         : Lavc62.11.100 libvpx-vp9\n      handler_name    : VideoHandler\n      vendor_id       : [0][0][0][0]\n    Side data:\n      cpb: bitrate max/min/avg: 0/0/0 buffer size: 2000000 vbv_delay: N/A\nframe=    0 fps=0.0 q=0.0 size=       0KiB time=N/A bitrate=N/A speed=N/A elapsed=0:00:00.52    \nframe=    3 fps=2.6 q=54.0 size=       1KiB time=00:00:00.10 bitrate=  50.7kbits/s speed=0.0856x elapsed=0:00:01.16    \nframe=    8 fps=4.7 q=63.0 size=       1KiB time=00:00:00.26 bitrate=  19.0kbits/s speed=0.158x elapsed=0:00:01.69    \nframe=   12 fps=5.4 q=63.0 size=       1KiB time=00:00:00.40 bitrate=  12.7kbits/s speed=0.181x elapsed=0:00:02.21    \nframe=   16 fps=5.8 q=63.0 size=       1KiB time=00:00:00.53 bitrate=   9.5kbits/s speed=0.192x elapsed=0:00:02.77    \nframe=   20 fps=6.1 q=63.0 size=       1KiB time=00:00:00.66 bitrate=   7.6kbits/s speed=0.202x elapsed=0:00:03.29    \nframe=   23 fps=6.0 q=62.0 size=       1KiB time=00:00:00.76 bitrate=   6.6kbits/s speed= 0.2x elapsed=0:00:03.83    \nframe=   27 fps=6.2 q=63.0 size=       1KiB time=00:00:00.90 bitrate=   5.6kbits/s speed=0.208x elapsed=0:00:04.33    \nframe=   31 fps=6.4 q=42.0 size=       1KiB time=00:00:01.03 bitrate=   4.9kbits/s speed=0.213x elapsed=0:00:04.85    \nframe=   35 fps=6.5 q=63.0 size=       1KiB time=00:00:01.16 bitrate=   4.3kbits/s speed=0.216x elapsed=0:00:05.41    \nframe=   39 fps=6.6 q=63.0 size=       1KiB time=00:00:01.30 bitrate=   3.9kbits/s speed=0.218x elapsed=0:00:05.94    \nframe=   43 fps=6.6 q=63.0 size=       1KiB time=00:00:01.43 bitrate=   3.5kbits/s speed=0.221x elapsed=0:00:06.47    \nframe=   47 fps=6.7 q=63.0 size=       1KiB time=00:00:01.56 bitrate=   3.2kbits/s speed=0.224x elapsed=0:00:06.99    \nframe=   50 fps=6.6 q=63.0 size=       1KiB time=00:00:01.66 bitrate=   3.0kbits/s speed=0.221x elapsed=0:00:07.53    \nframe=   54 fps=6.7 q=63.0 size=       1KiB time=00:00:01.80 bitrate=   2.8kbits/s speed=0.224x elapsed=0:00:08.04    \nframe=   59 fps=6.9 q=63.0 size=       1KiB time=00:00:01.96 bitrate=   2.6kbits/s speed=0.229x elapsed=0:00:08.57    \nframe=   63 fps=6.9 q=62.0 size=       1KiB time=00:00:02.10 bitrate=   2.4kbits/s speed=0.23x elapsed=0:00:09.13    \nframe=   67 fps=6.9 q=63.0 size=       1KiB time=00:00:02.23 bitrate=   2.3kbits/s speed=0.231x elapsed=0:00:09.64    \nframe=   70 fps=6.9 q=63.0 size=       1KiB time=00:00:02.33 bitrate=   2.2kbits/s speed=0.229x elapsed=0:00:10.17    \nframe=   75 fps=7.0 q=63.0 size=       1KiB time=00:00:02.50 bitrate=   2.0kbits/s speed=0.234x elapsed=0:00:10.69    \nframe=   79 fps=7.0 q=63.0 size=       1KiB time=00:00:02.63 bitrate=   1.9kbits/s speed=0.235x elapsed=0:00:11.21    \nframe=   82 fps=7.0 q=63.0 size=       1KiB time=00:00:02.73 bitrate=   1.9kbits/s speed=0.233x elapsed=0:00:11.73    \nframe=   86 fps=7.0 q=63.0 size=       1KiB time=00:00:02.86 bitrate=   1.8kbits/s speed=0.234x elapsed=0:00:12.25    \nframe=   90 fps=7.0 q=63.0 size=       1KiB time=00:00:03.00 bitrate=   1.7kbits/s speed=0.235x elapsed=0:00:12.78    \nframe=   95 fps=7.1 q=62.0 size=       1KiB time=00:00:03.16 bitrate=   1.6kbits/s speed=0.238x elapsed=0:00:13.31    \nframe=   99 fps=7.2 q=63.0 size=       1KiB time=00:00:03.30 bitrate=   1.5kbits/s speed=0.238x elapsed=0:00:13.84    \nframe=  103 fps=7.2 q=62.0 size=       1KiB time=00:00:03.43 bitrate=   1.5kbits/s speed=0.239x elapsed=0:00:14.37    \nframe=  107 fps=7.2 q=63.0 size=       1KiB time=00:00:03.56 bitrate=   1.4kbits/s speed=0.239x elapsed=0:00:14.89    \nframe=  111 fps=7.2 q=44.0 size=       1KiB time=00:00:03.70 bitrate=   1.4kbits/s speed=0.24x elapsed=0:00:15.41    \nframe=  116 fps=7.3 q=63.0 size=       1KiB time=00:00:03.86 bitrate=   1.3kbits/s speed=0.242x elapsed=0:00:15.94    \nframe=  120 fps=7.3 q=63.0 size=       1KiB time=00:00:04.00 bitrate=   1.3kbits/s speed=0.243x elapsed=0:00:16.48    \nframe=  124 fps=7.3 q=63.0 size=       1KiB time=00:00:04.13 bitrate=   1.2kbits/s speed=0.243x elapsed=0:00:17.01    \nframe=  126 fps=7.2 q=63.0 size=       1KiB time=00:00:04.20 bitrate=   1.2kbits/s speed=0.239x elapsed=0:00:17.53    \nframe=  126 fps=7.0 q=63.0 size=       1KiB time=00:00:04.20 bitrate=   1.2kbits/s speed=0.232x elapsed=0:00:18.07    \nframe=  126 fps=6.8 q=63.0 size=       1KiB time=00:00:04.20 bitrate=   1.2kbits/s speed=0.226x elapsed=0:00:18.60    \nframe=  126 fps=6.6 q=63.0 size=       1KiB time=00:00:04.20 bitrate=   1.2kbits/s speed=0.219x elapsed=0:00:19.14    \nframe=  126 fps=6.4 q=63.0 size=       1KiB time=00:00:04.20 bitrate=   1.2kbits/s speed=0.214x elapsed=0:00:19.66    \nframe=  126 fps=6.2 q=63.0 size=       1KiB time=00:00:04.20 bitrate=   1.2kbits/s speed=0.208x elapsed=0:00:20.18    \n[out#0/webm @ 00000267cfa59240] video:1358KiB audio:0KiB subtitle:0KiB other streams:0KiB global headers:0KiB muxing overhead: 0.126793%\nframe=  150 fps=7.4 q=63.0 Lsize=    1360KiB time=00:00:05.00 bitrate=2227.6kbits/s speed=0.247x elapsed=0:00:20.28    \n",
  "seconds": 20.55550503730774,
  "probe_out": {}
}